<mxfile host="app.diagrams.net" modified="2024-07-15T14:26:19.909Z" agent="Mozilla/5.0 (X11; Ubuntu; Linux x86_64; rv:127.0) Gecko/20100101 Firefox/127.0" etag="_n_bPdQwA5YsquKZHv6-" version="24.6.5" type="device">
  <diagram name="Page-1" id="9QH60iEYrVsY6ZgM2Gov">
    <mxGraphModel dx="655" dy="324" grid="1" gridSize="10" guides="1" tooltips="1" connect="1" arrows="1" fold="1" page="1" pageScale="1" pageWidth="827" pageHeight="1169" math="1" shadow="0">
      <root>
        <mxCell id="0" />
        <mxCell id="1" parent="0" />
        <mxCell id="vCQsMHom-0I6_TzwH5Za-1" value="" style="endArrow=none;html=1;rounded=0;" edge="1" parent="1">
          <mxGeometry width="50" height="50" relative="1" as="geometry">
            <mxPoint x="240" y="330" as="sourcePoint" />
            <mxPoint x="560" y="330" as="targetPoint" />
          </mxGeometry>
        </mxCell>
        <mxCell id="vCQsMHom-0I6_TzwH5Za-2" value="" style="endArrow=none;html=1;rounded=0;" edge="1" parent="1">
          <mxGeometry width="50" height="50" relative="1" as="geometry">
            <mxPoint x="240" y="330" as="sourcePoint" />
            <mxPoint x="240" y="280" as="targetPoint" />
          </mxGeometry>
        </mxCell>
        <mxCell id="vCQsMHom-0I6_TzwH5Za-4" value="&lt;font style=&quot;font-size: 10px;&quot;&gt;\(\tau_{11}\)&lt;/font&gt;" style="rounded=0;whiteSpace=wrap;html=1;" vertex="1" parent="1">
          <mxGeometry x="240" y="310" width="40" height="20" as="geometry" />
        </mxCell>
        <mxCell id="vCQsMHom-0I6_TzwH5Za-5" value="" style="endArrow=classic;html=1;rounded=0;" edge="1" parent="1">
          <mxGeometry width="50" height="50" relative="1" as="geometry">
            <mxPoint x="560" y="330" as="sourcePoint" />
            <mxPoint x="680" y="330" as="targetPoint" />
          </mxGeometry>
        </mxCell>
        <mxCell id="vCQsMHom-0I6_TzwH5Za-6" value="time" style="text;html=1;align=center;verticalAlign=middle;resizable=0;points=[];autosize=1;strokeColor=none;fillColor=none;" vertex="1" parent="1">
          <mxGeometry x="660" y="328" width="50" height="30" as="geometry" />
        </mxCell>
        <mxCell id="vCQsMHom-0I6_TzwH5Za-8" value="0" style="text;html=1;align=center;verticalAlign=middle;resizable=0;points=[];autosize=1;strokeColor=none;fillColor=none;" vertex="1" parent="1">
          <mxGeometry x="225" y="328" width="30" height="30" as="geometry" />
        </mxCell>
        <mxCell id="vCQsMHom-0I6_TzwH5Za-9" value="1" style="text;html=1;align=center;verticalAlign=middle;resizable=0;points=[];autosize=1;strokeColor=none;fillColor=none;" vertex="1" parent="1">
          <mxGeometry x="265" y="328" width="30" height="30" as="geometry" />
        </mxCell>
        <mxCell id="vCQsMHom-0I6_TzwH5Za-10" value="2" style="text;html=1;align=center;verticalAlign=middle;resizable=0;points=[];autosize=1;strokeColor=none;fillColor=none;" vertex="1" parent="1">
          <mxGeometry x="305" y="328" width="30" height="30" as="geometry" />
        </mxCell>
        <mxCell id="vCQsMHom-0I6_TzwH5Za-11" value="3" style="text;html=1;align=center;verticalAlign=middle;resizable=0;points=[];autosize=1;strokeColor=none;fillColor=none;" vertex="1" parent="1">
          <mxGeometry x="345" y="328" width="30" height="30" as="geometry" />
        </mxCell>
        <mxCell id="vCQsMHom-0I6_TzwH5Za-12" value="4" style="text;html=1;align=center;verticalAlign=middle;resizable=0;points=[];autosize=1;strokeColor=none;fillColor=none;" vertex="1" parent="1">
          <mxGeometry x="385" y="328" width="30" height="30" as="geometry" />
        </mxCell>
        <mxCell id="vCQsMHom-0I6_TzwH5Za-13" value="5" style="text;html=1;align=center;verticalAlign=middle;resizable=0;points=[];autosize=1;strokeColor=none;fillColor=none;" vertex="1" parent="1">
          <mxGeometry x="425" y="328" width="30" height="30" as="geometry" />
        </mxCell>
        <mxCell id="vCQsMHom-0I6_TzwH5Za-14" value="6" style="text;html=1;align=center;verticalAlign=middle;resizable=0;points=[];autosize=1;strokeColor=none;fillColor=none;" vertex="1" parent="1">
          <mxGeometry x="465" y="328" width="30" height="30" as="geometry" />
        </mxCell>
        <mxCell id="vCQsMHom-0I6_TzwH5Za-15" value="7" style="text;html=1;align=center;verticalAlign=middle;resizable=0;points=[];autosize=1;strokeColor=none;fillColor=none;" vertex="1" parent="1">
          <mxGeometry x="505" y="328" width="30" height="30" as="geometry" />
        </mxCell>
        <mxCell id="vCQsMHom-0I6_TzwH5Za-16" value="8" style="text;html=1;align=center;verticalAlign=middle;resizable=0;points=[];autosize=1;strokeColor=none;fillColor=none;" vertex="1" parent="1">
          <mxGeometry x="545" y="328" width="30" height="30" as="geometry" />
        </mxCell>
        <mxCell id="vCQsMHom-0I6_TzwH5Za-17" value="&lt;font style=&quot;font-size: 10px;&quot;&gt;\(\tau_{12}\)&lt;/font&gt;" style="rounded=0;whiteSpace=wrap;html=1;" vertex="1" parent="1">
          <mxGeometry x="240" y="290" width="40" height="20" as="geometry" />
        </mxCell>
        <mxCell id="vCQsMHom-0I6_TzwH5Za-18" value="&lt;font style=&quot;font-size: 10px;&quot;&gt;\(\tau_{13}\)&lt;/font&gt;" style="rounded=0;whiteSpace=wrap;html=1;" vertex="1" parent="1">
          <mxGeometry x="280" y="310" width="120" height="20" as="geometry" />
        </mxCell>
        <mxCell id="vCQsMHom-0I6_TzwH5Za-19" value="&lt;font style=&quot;font-size: 10px;&quot;&gt;\(\tau_{14}\)&lt;/font&gt;" style="rounded=0;whiteSpace=wrap;html=1;" vertex="1" parent="1">
          <mxGeometry x="400" y="310" width="120" height="20" as="geometry" />
        </mxCell>
        <mxCell id="vCQsMHom-0I6_TzwH5Za-20" value="9" style="text;html=1;align=center;verticalAlign=middle;resizable=0;points=[];autosize=1;strokeColor=none;fillColor=none;" vertex="1" parent="1">
          <mxGeometry x="585" y="328" width="30" height="30" as="geometry" />
        </mxCell>
        <mxCell id="vCQsMHom-0I6_TzwH5Za-21" value="10" style="text;html=1;align=center;verticalAlign=middle;resizable=0;points=[];autosize=1;strokeColor=none;fillColor=none;" vertex="1" parent="1">
          <mxGeometry x="620" y="328" width="40" height="30" as="geometry" />
        </mxCell>
        <mxCell id="vCQsMHom-0I6_TzwH5Za-22" value="&lt;font style=&quot;font-size: 10px;&quot;&gt;\(\tau_{15}\)&lt;/font&gt;" style="rounded=0;whiteSpace=wrap;html=1;" vertex="1" parent="1">
          <mxGeometry x="520" y="310" width="80" height="20" as="geometry" />
        </mxCell>
        <mxCell id="vCQsMHom-0I6_TzwH5Za-24" value="1" style="text;html=1;align=center;verticalAlign=middle;resizable=0;points=[];autosize=1;strokeColor=none;fillColor=none;" vertex="1" parent="1">
          <mxGeometry x="215" y="305" width="30" height="30" as="geometry" />
        </mxCell>
        <mxCell id="vCQsMHom-0I6_TzwH5Za-25" value="2" style="text;html=1;align=center;verticalAlign=middle;resizable=0;points=[];autosize=1;strokeColor=none;fillColor=none;" vertex="1" parent="1">
          <mxGeometry x="215" y="285" width="30" height="30" as="geometry" />
        </mxCell>
        <mxCell id="vCQsMHom-0I6_TzwH5Za-26" value="" style="endArrow=classic;html=1;rounded=0;" edge="1" parent="1">
          <mxGeometry width="50" height="50" relative="1" as="geometry">
            <mxPoint x="240" y="280" as="sourcePoint" />
            <mxPoint x="240" y="270" as="targetPoint" />
          </mxGeometry>
        </mxCell>
        <mxCell id="vCQsMHom-0I6_TzwH5Za-27" value="procs" style="text;html=1;align=center;verticalAlign=middle;resizable=0;points=[];autosize=1;strokeColor=none;fillColor=none;" vertex="1" parent="1">
          <mxGeometry x="215" y="248" width="50" height="30" as="geometry" />
        </mxCell>
      </root>
    </mxGraphModel>
  </diagram>
</mxfile>
